<?xml version="1.0" encoding="UTF-8"?>
<!--Generator: Apple Native CoreSVG 341-->
<!DOCTYPE svg
PUBLIC "-//W3C//DTD SVG 1.1//EN"
       "http://www.w3.org/Graphics/SVG/1.1/DTD/svg11.dtd">
<svg version="1.1" xmlns="http://www.w3.org/2000/svg" xmlns:xlink="http://www.w3.org/1999/xlink" viewBox="0 0 3300 2200">
 <!--glyph: "", point size: 100.0, font version: "21.0d6e2", template writer version: "138.0.0"-->
 <style>.defaults {-sfsymbols-variable-value-mode:color;-sfsymbols-draw-reverses-motion-groups:true}

.monochrome-0 {-sfsymbols-motion-group:0;-sfsymbols-layer-tags:-3f970f3d9bec7ec1}

.multicolor-0:tintColor {-sfsymbols-motion-group:0;-sfsymbols-layer-tags:-3f970f3d9bec7ec1}

.hierarchical-0:primary {-sfsymbols-motion-group:0;-sfsymbols-layer-tags:-3f970f3d9bec7ec1}

.SFSymbolsPreviewWireframe {fill:none;opacity:1.0;stroke:black;stroke-width:0.5}
</style>
 <g id="Notes">
  <rect height="2200" id="artboard" style="fill:white;opacity:1" width="3300" x="0" y="0"/>
  <line style="fill:none;stroke:black;opacity:1;stroke-width:0.5;" x1="263" x2="3036" y1="292" y2="292"/>
  <text style="stroke:none;fill:black;font-family:sans-serif;font-size:13;font-weight:bold;" transform="matrix(1 0 0 1 263 322)">Weight/Scale Variations</text>
  <text style="stroke:none;fill:black;font-family:sans-serif;font-size:13;text-anchor:middle;" transform="matrix(1 0 0 1 559.711 322)">Ultralight</text>
  <text style="stroke:none;fill:black;font-family:sans-serif;font-size:13;text-anchor:middle;" transform="matrix(1 0 0 1 856.422 322)">Thin</text>
  <text style="stroke:none;fill:black;font-family:sans-serif;font-size:13;text-anchor:middle;" transform="matrix(1 0 0 1 1153.13 322)">Light</text>
  <text style="stroke:none;fill:black;font-family:sans-serif;font-size:13;text-anchor:middle;" transform="matrix(1 0 0 1 1449.84 322)">Regular</text>
  <text style="stroke:none;fill:black;font-family:sans-serif;font-size:13;text-anchor:middle;" transform="matrix(1 0 0 1 1746.56 322)">Medium</text>
  <text style="stroke:none;fill:black;font-family:sans-serif;font-size:13;text-anchor:middle;" transform="matrix(1 0 0 1 2043.27 322)">Semibold</text>
  <text style="stroke:none;fill:black;font-family:sans-serif;font-size:13;text-anchor:middle;" transform="matrix(1 0 0 1 2339.98 322)">Bold</text>
  <text style="stroke:none;fill:black;font-family:sans-serif;font-size:13;text-anchor:middle;" transform="matrix(1 0 0 1 2636.69 322)">Heavy</text>
  <text style="stroke:none;fill:black;font-family:sans-serif;font-size:13;text-anchor:middle;" transform="matrix(1 0 0 1 2933.4 322)">Black</text>
  <line style="fill:none;stroke:black;opacity:1;stroke-width:0.5;" x1="263" x2="3036" y1="1903" y2="1903"/>
  <g transform="matrix(0.2 0 0 0.2 263 1933)">
   <path d="m46.2402 4.15039c21.7773 0 39.4531-17.627 39.4531-39.4043s-17.6758-39.4043-39.4531-39.4043c-21.7285 0-39.4043 17.627-39.4043 39.4043s17.6758 39.4043 39.4043 39.4043Zm0-7.42188c-17.6758 0-31.9336-14.3066-31.9336-31.9824s14.2578-31.9824 31.9336-31.9824 31.9824 14.3066 31.9824 31.9824-14.3066 31.9824-31.9824 31.9824Zm3.61328-17.7734v-28.4668c0-2.24609-1.46484-3.75977-3.71094-3.75977-2.14844 0-3.61328 1.51367-3.61328 3.75977v28.4668c0 2.19727 1.46484 3.71094 3.61328 3.71094 2.24609 0 3.71094-1.51367 3.71094-3.71094Zm-17.8223-10.5957h28.418c2.19727 0 3.71094-1.46484 3.71094-3.61328 0-2.19727-1.51367-3.71094-3.71094-3.71094h-28.418c-2.24609 0-3.75977 1.51367-3.75977 3.71094 0 2.14844 1.51367 3.61328 3.75977 3.61328Z"/>
  </g>
  <g transform="matrix(0.2 0 0 0.2 281.506 1933)">
   <path d="m58.5449 14.5508c27.4902 0 49.8047-22.3145 49.8047-49.8047s-22.3145-49.8047-49.8047-49.8047-49.8047 22.3145-49.8047 49.8047 22.3145 49.8047 49.8047 49.8047Zm0-8.30078c-22.9492 0-41.5039-18.5547-41.5039-41.5039s18.5547-41.5039 41.5039-41.5039 41.5039 18.5547 41.5039 41.5039-18.5547 41.5039-41.5039 41.5039Zm4.05273-23.0957v-36.9141c0-2.49023-1.70898-4.19922-4.15039-4.19922-2.39258 0-4.05273 1.70898-4.05273 4.19922v36.9141c0 2.44141 1.66016 4.15039 4.05273 4.15039 2.44141 0 4.15039-1.66016 4.15039-4.15039Zm-22.5586-14.4043h36.9629c2.44141 0 4.15039-1.61133 4.15039-4.00391 0-2.44141-1.70898-4.15039-4.15039-4.15039h-36.9629c-2.49023 0-4.15039 1.70898-4.15039 4.15039 0 2.39258 1.66016 4.00391 4.15039 4.00391Z"/>
  </g>
  <g transform="matrix(0.2 0 0 0.2 304.924 1933)">
   <path d="m74.8535 28.3203c35.1074 0 63.623-28.4668 63.623-63.5742s-28.5156-63.623-63.623-63.623-63.5742 28.5156-63.5742 63.623 28.4668 63.5742 63.5742 63.5742Zm0-9.08203c-30.127 0-54.4922-24.3652-54.4922-54.4922s24.3652-54.4922 54.4922-54.4922 54.4922 24.3652 54.4922 54.4922-24.3652 54.4922-54.4922 54.4922Zm4.44336-30.3223v-48.4863c0-2.73438-1.85547-4.63867-4.54102-4.63867-2.58789 0-4.44336 1.9043-4.44336 4.63867v48.4863c0 2.68555 1.85547 4.58984 4.44336 4.58984 2.68555 0 4.54102-1.85547 4.54102-4.58984Zm-28.7109-19.7754h48.4863c2.68555 0 4.58984-1.80664 4.58984-4.39453 0-2.73438-1.85547-4.58984-4.58984-4.58984h-48.4863c-2.73438 0-4.58984 1.85547-4.58984 4.58984 0 2.58789 1.85547 4.39453 4.58984 4.39453Z"/>
  </g>
  <text style="stroke:none;fill:black;font-family:sans-serif;font-size:13;font-weight:bold;" transform="matrix(1 0 0 1 263 1953)">Design Variations</text>
  <text style="stroke:none;fill:black;font-family:sans-serif;font-size:13;" transform="matrix(1 0 0 1 263 1971)">Symbols are supported in up to nine weights and three scales.</text>
  <text style="stroke:none;fill:black;font-family:sans-serif;font-size:13;" transform="matrix(1 0 0 1 263 1989)">For optimal layout with text and other symbols, vertically align</text>
  <text style="stroke:none;fill:black;font-family:sans-serif;font-size:13;" transform="matrix(1 0 0 1 263 2007)">symbols with the adjacent text.</text>
  <line style="fill:none;stroke:#00AEEF;stroke-width:0.5;opacity:1.0;" x1="776" x2="776" y1="1919" y2="1933"/>
  <g transform="matrix(0.2 0 0 0.2 776 1933)">
   <path d="m16.5527 0.78125c2.58789 0 3.85742-0.976562 4.78516-3.71094l20.5566-57.5195h0.244141l20.6055 57.5195c0.927734 2.73438 2.19727 3.71094 4.73633 3.71094 2.58789 0 4.24805-1.5625 4.24805-4.00391 0-0.830078-0.146484-1.61133-0.537109-2.63672l-22.9004-60.9863c-1.12305-2.97852-3.125-4.49219-6.25-4.49219-3.02734 0-5.07812 1.46484-6.15234 4.44336l-22.9004 61.084c-0.390625 1.02539-0.537109 1.80664-0.537109 2.63672 0 2.44141 1.5625 3.95508 4.10156 3.95508Zm10.2051-20.9473h30.6641c2.00195 0 3.66211-1.66016 3.66211-3.66211 0-2.05078-1.66016-3.66211-3.66211-3.66211h-30.6641c-2.00195 0-3.66211 1.61133-3.66211 3.66211 0 2.00195 1.66016 3.66211 3.66211 3.66211Z"/>
  </g>
  <line style="fill:none;stroke:#00AEEF;stroke-width:0.5;opacity:1.0;" x1="792.836" x2="792.836" y1="1919" y2="1933"/>
  <text style="stroke:none;fill:black;font-family:sans-serif;font-size:13;font-weight:bold;" transform="matrix(1 0 0 1 776 1953)">Margins</text>
  <text style="stroke:none;fill:black;font-family:sans-serif;font-size:13;" transform="matrix(1 0 0 1 776 1971)">Leading and trailing margins on the left and right side of each symbol</text>
  <text style="stroke:none;fill:black;font-family:sans-serif;font-size:13;" transform="matrix(1 0 0 1 776 1989)">can be adjusted by modifying the x-location of the margin guidelines.</text>
  <text style="stroke:none;fill:black;font-family:sans-serif;font-size:13;" transform="matrix(1 0 0 1 776 2007)">Modifications are automatically applied proportionally to all</text>
  <text style="stroke:none;fill:black;font-family:sans-serif;font-size:13;" transform="matrix(1 0 0 1 776 2025)">scales and weights.</text>
  <g transform="matrix(0.2 0 0 0.2 1289 1933)">
   <path d="m14.209 13.1348 7.86133 7.86133c4.29688 4.39453 9.32617 4.10156 13.8672-1.02539l60.6934-68.2129-4.88281-4.88281-60.2539 67.6758c-1.80664 1.95312-3.4668 2.44141-5.81055 0.0976562l-5.17578-5.12695c-2.29492-2.29492-1.80664-3.95508 0.195312-5.81055l67.4805-62.1582-4.88281-4.83398-68.0664 62.5977c-4.98047 4.58984-5.32227 9.47266-1.02539 13.8184Zm44.873-97.4609c-2.05078 2.00195-2.24609 4.88281-1.07422 6.78711 1.12305 1.80664 3.4668 3.02734 6.5918 2.24609 5.85938-1.66016 12.5977-2.39258 18.8965 0.927734l-2.68555 7.12891c-1.61133 4.00391-0.732422 6.88477 1.70898 9.42383l10.2539 10.3027c2.34375 2.39258 4.54102 2.44141 7.08008 1.95312l4.44336-0.732422 2.58789 2.53906-0.195312 2.24609c-0.0976562 2.29492 0.537109 4.29688 2.7832 6.49414l3.36914 3.32031c2.29492 2.29492 5.51758 2.49023 7.8125 0.195312l12.9883-13.0371c2.29492-2.34375 2.14844-5.37109-0.195312-7.66602l-3.41797-3.41797c-2.19727-2.19727-4.05273-3.02734-6.34766-2.88086l-2.34375 0.244141-2.44141-2.44141 1.02539-4.6875c0.634766-2.73438-0.244141-4.98047-2.88086-7.61719l-11.2793-11.1816c-12.9395-12.8418-35.5957-11.0352-46.6797-0.146484Zm7.08008 2.05078c8.78906-6.39648 25.9766-5.66406 33.6914 1.95312l12.3047 12.207c1.02539 1.02539 1.2207 1.80664 0.927734 3.32031l-1.46484 6.64062 6.73828 6.68945 4.39453-0.244141c1.12305-0.0488281 1.51367 0.0488281 2.34375 0.878906l2.53906 2.49023-10.8398 10.8398-2.49023-2.49023c-0.830078-0.878906-0.976562-1.2207-0.927734-2.39258l0.292969-4.3457-6.68945-6.73828-6.83594 1.17188c-1.41602 0.292969-2.05078 0.195312-3.17383-0.878906l-8.93555-8.88672c-1.07422-1.02539-1.17188-1.70898-0.488281-3.36914l4.58984-11.4746c-6.10352-6.34766-17.041-7.51953-25.5859-4.58984-0.683594 0.244141-0.927734-0.390625-0.390625-0.78125Z"/>
  </g>
  <text style="stroke:none;fill:black;font-family:sans-serif;font-size:13;font-weight:bold;" transform="matrix(1 0 0 1 1289 1953)">Exporting</text>
  <text style="stroke:none;fill:black;font-family:sans-serif;font-size:13;" transform="matrix(1 0 0 1 1289 1971)">Symbols should be outlined when exporting to ensure the</text>
  <text style="stroke:none;fill:black;font-family:sans-serif;font-size:13;" transform="matrix(1 0 0 1 1289 1989)">design is preserved when submitting to Xcode.</text>
  <text id="template-version" style="stroke:none;fill:black;font-family:sans-serif;font-size:13;text-anchor:end;" transform="matrix(1 0 0 1 3036 1933)">Template v.7.0</text>
  <text style="stroke:none;fill:black;font-family:sans-serif;font-size:13;text-anchor:end;" transform="matrix(1 0 0 1 3036 1951)">Requires Xcode 17 or greater</text>
  <text id="descriptive-name" style="stroke:none;fill:black;font-family:sans-serif;font-size:13;text-anchor:end;" transform="matrix(1 0 0 1 3036 1969)">Generated from custom.car.side.rear.open.front.open</text>
  <text style="stroke:none;fill:black;font-family:sans-serif;font-size:13;text-anchor:end;" transform="matrix(1 0 0 1 3036 1987)">Typeset at 100.0 points</text>
  <text style="stroke:none;fill:black;font-family:sans-serif;font-size:13;" transform="matrix(1 0 0 1 263 726)">Small</text>
  <text style="stroke:none;fill:black;font-family:sans-serif;font-size:13;" transform="matrix(1 0 0 1 263 1156)">Medium</text>
  <text style="stroke:none;fill:black;font-family:sans-serif;font-size:13;" transform="matrix(1 0 0 1 263 1586)">Large</text>
 </g>
 <g id="Guides">
  <g id="H-reference" style="fill:#27AAE1;stroke:none;" transform="matrix(1 0 0 1 339 696)">
   <path d="M0.993654 0L3.63775 0L29.3281-67.1323L30.0303-67.1323L30.0303-70.459L28.1226-70.459ZM11.6885-24.4799L46.9815-24.4799L46.2315-26.7285L12.4385-26.7285ZM55.1196 0L57.7637 0L30.6382-70.459L29.4326-70.459L29.4326-67.1323Z"/>
  </g>
  <line id="Baseline-S" style="fill:none;stroke:#27AAE1;opacity:1;stroke-width:0.5;" x1="263" x2="3036" y1="696" y2="696"/>
  <line id="Capline-S" style="fill:none;stroke:#27AAE1;opacity:1;stroke-width:0.5;" x1="263" x2="3036" y1="625.541" y2="625.541"/>
  <g id="H-reference" style="fill:#27AAE1;stroke:none;" transform="matrix(1 0 0 1 339 1126)">
   <path d="M0.993654 0L3.63775 0L29.3281-67.1323L30.0303-67.1323L30.0303-70.459L28.1226-70.459ZM11.6885-24.4799L46.9815-24.4799L46.2315-26.7285L12.4385-26.7285ZM55.1196 0L57.7637 0L30.6382-70.459L29.4326-70.459L29.4326-67.1323Z"/>
  </g>
  <line id="Baseline-M" style="fill:none;stroke:#27AAE1;opacity:1;stroke-width:0.5;" x1="263" x2="3036" y1="1126" y2="1126"/>
  <line id="Capline-M" style="fill:none;stroke:#27AAE1;opacity:1;stroke-width:0.5;" x1="263" x2="3036" y1="1055.54" y2="1055.54"/>
  <g id="H-reference" style="fill:#27AAE1;stroke:none;" transform="matrix(1 0 0 1 339 1556)">
   <path d="M0.993654 0L3.63775 0L29.3281-67.1323L30.0303-67.1323L30.0303-70.459L28.1226-70.459ZM11.6885-24.4799L46.9815-24.4799L46.2315-26.7285L12.4385-26.7285ZM55.1196 0L57.7637 0L30.6382-70.459L29.4326-70.459L29.4326-67.1323Z"/>
  </g>
  <line id="Baseline-L" style="fill:none;stroke:#27AAE1;opacity:1;stroke-width:0.5;" x1="263" x2="3036" y1="1556" y2="1556"/>
  <line id="Capline-L" style="fill:none;stroke:#27AAE1;opacity:1;stroke-width:0.5;" x1="263" x2="3036" y1="1485.54" y2="1485.54"/>
  <line id="right-margin-Black-S" style="fill:none;stroke:#00AEEF;stroke-width:0.5;opacity:1.0;" x1="3018.46" x2="3018.46" y1="600.785" y2="720.121"/>
  <line id="left-margin-Black-S" style="fill:none;stroke:#00AEEF;stroke-width:0.5;opacity:1.0;" x1="2848.34" x2="2848.34" y1="600.785" y2="720.121"/>
  <line id="right-margin-Regular-S" style="fill:none;stroke:#00AEEF;stroke-width:0.5;opacity:1.0;" x1="1531.29" x2="1531.29" y1="600.785" y2="720.121"/>
  <line id="left-margin-Regular-S" style="fill:none;stroke:#00AEEF;stroke-width:0.5;opacity:1.0;" x1="1368.4" x2="1368.4" y1="600.785" y2="720.121"/>
  <line id="right-margin-Ultralight-S" style="fill:none;stroke:#00AEEF;stroke-width:0.5;opacity:1.0;" x1="635.957" x2="635.957" y1="600.785" y2="720.121"/>
  <line id="left-margin-Ultralight-S" style="fill:none;stroke:#00AEEF;stroke-width:0.5;opacity:1.0;" x1="483.465" x2="483.465" y1="600.785" y2="720.121"/>
 </g>
 <g id="Symbols">
  <g id="Black-S" transform="matrix(1 0 0 1 2848.34 696)">
   <path class="monochrome-0 multicolor-0:tintColor hierarchical-0:primary SFSymbolsPreviewWireframe" d="M130.664-60.01L139.697-52.637L146.777-59.766C147.998-60.986 148.877-61.572 151.025-61.572L154.541-61.572C158.008-61.572 160.352-64.014 160.352-67.285C160.352-70.557 157.959-72.949 154.541-72.949L150.537-72.949C144.482-72.949 142.432-71.68 139.453-68.75L130.664-60.01ZM25.439-8.398L33.545-8.398L33.545-20.605L25.439-20.605C23.193-20.605 21.973-22.168 21.973-24.902L21.973-29.492C21.973-34.424 25.049-37.549 31.934-38.379L47.949-40.332C50.488-40.625 52.734-41.406 54.785-42.676L69.824-52.1C78.369-57.471 83.057-58.594 98.193-58.594L104.688-58.594C114.258-58.594 121.729-55.078 131.885-46.24C134.082-44.287 135.645-43.603 138.525-42.676L142.48-41.406C145.557-40.43 147.266-38.135 147.266-35.059L147.266-24.902C147.266-22.168 146.045-20.605 143.799-20.605L135.693-20.605L135.693-8.398L143.799-8.398C153.857-8.398 159.473-14.307 159.473-24.902L159.473-36.035C159.473-44.775 154.736-50.098 146.094-53.272L140.332-55.371C132.666-62.06 120.361-70.801 104.688-70.801L98.193-70.801C81.006-70.801 73.731-69.092 63.281-62.5L47.51-52.539L30.371-50.488C17.627-48.975 9.766-40.674 9.766-29.492L9.766-24.609C9.766-14.209 15.381-8.398 25.439-8.398ZM54.98-8.398L113.037-8.398L113.037-20.605L54.98-20.605L54.98-8.398ZM44.58 0.342C54.199 0.342 61.768-7.227 61.768-16.846C61.768-26.514 54.199-34.082 44.58-34.082C34.912-34.082 27.344-26.514 27.344-16.846C27.344-7.227 34.912 0.342 44.58 0.342ZM44.58-11.328C41.455-11.328 39.014-13.77 39.014-16.846C39.014-19.971 41.455-22.412 44.58-22.412C47.656-22.412 50.098-19.971 50.098-16.846C50.098-13.77 47.656-11.328 44.58-11.328ZM124.658 0.342C134.326 0.342 141.895-7.227 141.895-16.846C141.895-26.514 134.326-34.082 124.658-34.082C115.039-34.082 107.471-26.514 107.471-16.846C107.471-7.227 115.039 0.342 124.658 0.342ZM124.658-11.328C121.582-11.328 119.141-13.77 119.141-16.846C119.141-19.971 121.582-22.412 124.658-22.412C127.783-22.412 130.225-19.971 130.225-16.846C130.225-13.77 127.783-11.328 124.658-11.328ZM16.016-61.084L26.661-61.084C28.809-61.084 29.688-60.498 30.909-59.277L44.581-45.557L55.128-51.416L38.233-68.262C35.255-71.191 33.204-72.461 27.149-72.461L16.016-72.461C12.598-72.461 10.206-70.068 10.206-66.797C10.206-63.525 12.549-61.084 16.016-61.084Z"/>
  </g>
  <g id="Regular-S" transform="matrix(1 0 0 1 1368.4 696)">
   <path class="monochrome-0 multicolor-0:tintColor hierarchical-0:primary SFSymbolsPreviewWireframe" d="M124.707-52.344L129.785-48.291L140.918-59.473C141.797-60.352 142.92-60.693 144.189-60.693L149.854-60.693C151.855-60.693 153.125-61.963 153.125-63.867C153.125-65.723 151.855-66.943 149.854-66.943L144.971-66.943C141.455-66.943 138.281-65.967 135.889-63.574L124.707-52.344ZM22.412-12.012L27.93-12.012L27.93-19.092L22.412-19.092C18.506-19.092 16.797-21.045 16.797-25.439L16.797-29.883C16.797-35.449 20.898-39.648 28.223-40.527L43.457-42.383C45.703-42.676 47.461-43.262 49.121-44.287L63.379-53.272C71.826-58.545 76.953-59.766 91.602-59.766L97.656-59.766C107.373-59.766 115.234-56.103 125.098-47.461C126.953-45.85 128.027-45.361 130.566-44.58L134.375-43.31C138.525-41.992 140.527-39.795 140.527-36.035L140.527-25.439C140.527-21.045 138.818-19.092 134.912-19.092L129.346-19.092L129.346-12.012L134.912-12.012C143.701-12.012 147.559-16.162 147.559-25.439L147.559-36.035C147.559-43.359 143.945-48.096 136.572-50.488L130.518-52.441C123.242-58.838 112.061-66.797 97.656-66.797L91.602-66.797C75.684-66.797 69.141-65.234 59.619-59.277L44.141-49.56L27.344-47.51C16.357-46.143 9.766-39.307 9.766-29.883L9.766-25.146C9.766-16.064 13.721-12.012 22.412-12.012ZM47.9-12.012L109.961-12.012L109.961-19.092L47.9-19.092L47.9-12.012ZM38.477-3.711C46.387-3.711 52.588-9.863 52.588-17.822C52.588-25.732 46.387-31.885 38.477-31.885C30.566-31.885 24.365-25.732 24.365-17.822C24.365-9.863 30.566-3.711 38.477-3.711ZM38.477-10.303C34.277-10.303 30.957-13.574 30.957-17.822C30.957-22.021 34.277-25.342 38.477-25.342C42.676-25.342 45.996-22.021 45.996-17.822C45.996-13.574 42.676-10.303 38.477-10.303ZM118.848-3.711C126.758-3.711 132.959-9.863 132.959-17.822C132.959-25.732 126.758-31.885 118.848-31.885C110.938-31.885 104.736-25.732 104.736-17.822C104.736-9.863 110.938-3.711 118.848-3.711ZM118.848-10.303C114.648-10.303 111.328-13.574 111.328-17.822C111.328-22.021 114.648-25.342 118.848-25.342C123.047-25.342 126.367-22.021 126.367-17.822C126.367-13.574 123.047-10.303 118.848-10.303ZM15.768-60.84L27.78-60.84C29.098-60.84 30.27-60.498 31.149-59.619L44.821-45.947L50.729-49.219L36.178-63.721C33.835-66.113 30.612-67.139 26.999-67.139L15.768-67.139C13.766-67.139 12.546-65.869 12.546-64.014C12.546-62.109 13.766-60.84 15.768-60.84Z"/>
  </g>
  <g id="Ultralight-S" transform="matrix(1 0 0 1 483.465 696)">
   <path class="monochrome-0 multicolor-0:tintColor hierarchical-0:primary SFSymbolsPreviewWireframe" d="M123.027-49.12L124.79-47.701L132.472-56.249C133.305-57.264 133.974-57.605 135.107-57.605L141.634-57.605C142.229-57.605 142.726-58.058 142.726-58.691C142.726-59.275 142.229-59.769 141.634-59.769L135.162-59.769C133.145-59.769 132.015-59.201 130.712-57.671L123.027-49.12ZM19.778-14.918L25.023-14.918L25.023-17.139L19.778-17.139C14.555-17.139 11.983-19.864 11.983-25.394L11.983-30.836C11.983-37.129 16.721-41.647 24.272-42.571L39.961-44.472C42.479-44.765 43.192-45.123 44.58-45.967L58.475-54.725C66.876-59.998 73.411-61.4 87.106-61.4L91.662-61.4C103.105-61.4 111.329-57.602 121.465-48.732C122.821-47.53 123.35-47.359 124.527-46.987L129.562-45.399C134.983-43.672 137.076-41.157 137.076-35.99L137.076-25.394C137.076-19.864 134.504-17.139 129.281-17.139L123.806-17.139L123.806-14.918L129.281-14.918C135.982-14.918 139.294-18.387 139.294-25.394L139.294-35.99C139.294-42.133 136.589-45.371 129.988-47.673L123.797-49.808C114.024-57.884 105.749-63.573 91.662-63.573L87.106-63.573C72.868-63.573 65.871-62.056 57.212-56.644L41.734-46.927L23.983-44.74C15.222-43.645 9.766-38.353 9.766-30.836L9.766-25.373C9.766-18.38 13.085-14.918 19.778-14.918ZM45.63-14.918L103.604-14.918L103.604-17.139L45.63-17.139L45.63-14.918ZM35.298-6.935C41.709-6.935 46.685-11.907 46.685-18.276C46.685-24.643 41.709-29.66 35.298-29.66C28.932-29.66 23.956-24.643 23.956-18.276C23.956-11.907 28.932-6.935 35.298-6.935ZM35.298-9.077C30.191-9.077 26.144-13.165 26.144-18.276C26.144-23.429 30.191-27.476 35.298-27.476C40.451-27.476 44.498-23.429 44.498-18.276C44.498-13.165 40.451-9.077 35.298-9.077ZM113.762-6.935C120.128-6.935 125.103-11.907 125.103-18.276C125.103-24.643 120.128-29.66 113.762-29.66C107.35-29.66 102.375-24.643 102.375-18.276C102.375-11.907 107.35-6.935 113.762-6.935ZM113.762-9.077C108.609-9.077 104.562-13.165 104.562-18.276C104.562-23.429 108.609-27.476 113.762-27.476C118.869-27.476 122.916-23.429 122.916-18.276C122.916-13.165 118.869-9.077 113.762-9.077ZM12.57-60.386L25.445-60.386C27.489-60.386 28.389-59.998 29.404-58.983L42.395-45.947L44.579-47.13L31.255-60.451C29.864-61.936 28.277-62.552 25.39-62.552L12.57-62.552C11.976-62.552 11.482-62.055 11.482-61.471C11.482-60.838 11.976-60.386 12.57-60.386Z"/>
  </g>
 </g>
</svg>
